<?xml version="1.0" encoding="UTF-8" standalone="no"?>
<!DOCTYPE svg PUBLIC "-//W3C//DTD SVG 1.1//EN"
 "http://www.w3.org/Graphics/SVG/1.1/DTD/svg11.dtd">
<!-- Generated by graphviz version 2.30.1 (20130214.1330)
 -->
<!-- Title: %3 Pages: 1 -->
<svg width="678pt" height="952pt"
 viewBox="0.00 0.00 678.26 952.00" xmlns="http://www.w3.org/2000/svg" xmlns:xlink="http://www.w3.org/1999/xlink">
<g id="graph0" class="graph" transform="scale(1 1) rotate(0) translate(4 948)">
<title>%3</title>
<polygon fill="white" stroke="white" points="-4,5 -4,-948 675.26,-948 675.26,5 -4,5"/>
<!-- www.example.cz/home -->
<g id="node1" class="node"><title>www.example.cz/home</title>
<g id="a_node1"><a xlink:href="http://www.seznam.cz/" xlink:title="http://www.seznam.cz/">
<ellipse fill="green" stroke="green" cx="220" cy="-872" rx="72" ry="72"/>
<text text-anchor="middle" x="220" y="-868.3" font-family="Times New Roman,serif" font-size="14.00">www.example.cz/home</text>
</a>
</g>
</g>
<!-- www.example.cz/a -->
<g id="node2" class="node"><title>www.example.cz/a</title>
<ellipse fill="none" stroke="black" cx="289" cy="-712" rx="36" ry="36"/>
<text text-anchor="middle" x="289" y="-708.3" font-family="Times New Roman,serif" font-size="14.00">www.example.cz/a</text>
</g>
<!-- www.example.cz/home&#45;&gt;www.example.cz/a -->
<g id="edge1" class="edge"><title>www.example.cz/home&#45;&gt;www.example.cz/a</title>
<path fill="none" stroke="black" d="M272.905,-823.029C283.154,-810.759 292.43,-796.807 298,-782 301.027,-773.954 301.675,-765.05 301.034,-756.387"/>
<polygon fill="black" stroke="black" points="304.497,-755.868 299.755,-746.393 297.553,-756.757 304.497,-755.868"/>
<text text-anchor="middle" x="322" y="-770.3" font-family="Times New Roman,serif" font-size="14.00">go to a</text>
</g>
<!-- www.example.cz/b -->
<g id="node3" class="node"><title>www.example.cz/b</title>
<ellipse fill="none" stroke="black" cx="140" cy="-530" rx="93.25" ry="93.5"/>
<text text-anchor="middle" x="140" y="-526.3" font-family="Times New Roman,serif" font-size="14.00">www.example.cz/b</text>
</g>
<!-- www.example.cz/home&#45;&gt;www.example.cz/b -->
<g id="edge2" class="edge"><title>www.example.cz/home&#45;&gt;www.example.cz/b</title>
<path fill="none" stroke="black" d="M168.86,-821.174C151.066,-800.42 133.253,-774.895 124,-748 111.28,-711.029 111.461,-668.482 116.19,-630.911"/>
<polygon fill="black" stroke="black" points="119.662,-631.35 117.561,-620.966 112.728,-630.394 119.662,-631.35"/>
<text text-anchor="middle" x="144.5" y="-708.3" font-family="Times New Roman,serif" font-size="14.00">go to b</text>
</g>
<!-- www.example.cz/e -->
<g id="node4" class="node"><title>www.example.cz/e</title>
<ellipse fill="none" stroke="black" cx="576" cy="-712" rx="36" ry="36"/>
<text text-anchor="middle" x="576" y="-708.3" font-family="Times New Roman,serif" font-size="14.00">www.example.cz/e</text>
</g>
<!-- www.example.cz/home&#45;&gt;www.example.cz/e -->
<g id="edge3" class="edge"><title>www.example.cz/home&#45;&gt;www.example.cz/e</title>
<path fill="none" stroke="black" d="M290.963,-859.676C352.406,-847.521 441.868,-824.025 510,-782 524.12,-773.291 537.286,-760.846 548.087,-748.917"/>
<polygon fill="black" stroke="black" points="550.888,-751.031 554.83,-741.197 545.615,-746.427 550.888,-751.031"/>
<text text-anchor="middle" x="551.5" y="-770.3" font-family="Times New Roman,serif" font-size="14.00">go to b</text>
</g>
<!-- www.example.cz/home&#45;&gt;www.example.cz/b -->
<g id="edge4" class="edge"><title>www.example.cz/home&#45;&gt;www.example.cz/b</title>
<path fill="none" stroke="black" d="M203.714,-801.786C192.143,-752.606 176.427,-685.814 163.499,-630.872"/>
<polygon fill="black" stroke="black" points="166.9,-630.043 161.202,-621.11 160.086,-631.646 166.9,-630.043"/>
<text text-anchor="middle" x="215" y="-708.3" font-family="Times New Roman,serif" font-size="14.00">go to b2</text>
</g>
<!-- www.example.cz/css -->
<g id="node10" class="node"><title>www.example.cz/css</title>
<ellipse fill="none" stroke="black" cx="413" cy="-130" rx="129.25" ry="129.5"/>
<text text-anchor="middle" x="413" y="-126.3" font-family="Times New Roman,serif" font-size="14.00">www.example.cz/css</text>
</g>
<!-- www.example.cz/home&#45;&gt;www.example.cz/css -->
<g id="edge14" class="edge"><title>www.example.cz/home&#45;&gt;www.example.cz/css</title>
<path fill="none" stroke="black" d="M291.436,-861.469C373.214,-846.08 496,-807.276 496,-713 496,-713 496,-713 496,-347 496,-315.734 488.329,-283.515 477.651,-253.813"/>
<polygon fill="black" stroke="black" points="480.861,-252.405 474.084,-244.262 474.304,-254.854 480.861,-252.405"/>
<text text-anchor="middle" x="509" y="-526.3" font-family="Times New Roman,serif" font-size="14.00">style</text>
</g>
<!-- www.example.cz/a&#45;&gt;www.example.cz/home -->
<g id="edge5" class="edge"><title>www.example.cz/a&#45;&gt;www.example.cz/home</title>
<path fill="none" stroke="black" d="M260.031,-733.416C240.571,-747.277 218.252,-763.524 217,-766 213.126,-773.662 210.779,-782.057 209.527,-790.656"/>
<polygon fill="black" stroke="black" points="206.024,-790.52 208.535,-800.812 212.99,-791.2 206.024,-790.52"/>
<text text-anchor="middle" x="255.5" y="-770.3" font-family="Times New Roman,serif" font-size="14.00">back to home</text>
</g>
<!-- www.example.cz/a&#45;&gt;www.example.cz/b -->
<g id="edge6" class="edge"><title>www.example.cz/a&#45;&gt;www.example.cz/b</title>
<path fill="none" stroke="black" d="M259.367,-691.327C246.708,-682.094 232.282,-670.4 221,-658 210.605,-646.576 200.695,-633.663 191.6,-620.556"/>
<polygon fill="black" stroke="black" points="194.256,-618.237 185.744,-611.929 188.464,-622.169 194.256,-618.237"/>
<text text-anchor="middle" x="245.5" y="-646.3" font-family="Times New Roman,serif" font-size="14.00">turn to b</text>
</g>
<!-- www.example.cz/c -->
<g id="node5" class="node"><title>www.example.cz/c</title>
<ellipse fill="none" stroke="black" cx="387" cy="-530" rx="72" ry="72"/>
<text text-anchor="middle" x="387" y="-526.3" font-family="Times New Roman,serif" font-size="14.00">www.example.cz/c</text>
</g>
<!-- www.example.cz/a&#45;&gt;www.example.cz/c -->
<g id="edge7" class="edge"><title>www.example.cz/a&#45;&gt;www.example.cz/c</title>
<path fill="none" stroke="black" d="M305.847,-680.057C317.45,-658.744 333.361,-629.521 348.021,-602.594"/>
<polygon fill="black" stroke="black" points="351.229,-604.021 352.937,-593.564 345.081,-600.674 351.229,-604.021"/>
<text text-anchor="middle" x="347" y="-646.3" font-family="Times New Roman,serif" font-size="14.00">go to c</text>
</g>
<!-- www.example.cz/a&#45;&gt;www.example.cz/css -->
<g id="edge15" class="edge"><title>www.example.cz/a&#45;&gt;www.example.cz/css</title>
<path fill="none" stroke="black" d="M286.019,-675.988C281.26,-604.805 276.878,-439.175 325,-312 332.12,-293.184 340.489,-273.676 349.184,-254.738"/>
<polygon fill="black" stroke="black" points="352.44,-256.037 353.475,-245.493 346.091,-253.09 352.44,-256.037"/>
<text text-anchor="middle" x="313" y="-406.3" font-family="Times New Roman,serif" font-size="14.00">style</text>
</g>
<!-- www.example.cz/b&#45;&gt;www.example.cz/home -->
<g id="edge10" class="edge"><title>www.example.cz/b&#45;&gt;www.example.cz/home</title>
<path fill="none" stroke="black" d="M73.6378,-596.196C37.7814,-639.617 5.88865,-697.717 33,-748 56.4888,-791.564 102.894,-822.226 143.598,-842.041"/>
<polygon fill="black" stroke="black" points="142.186,-845.245 152.723,-846.352 145.176,-838.916 142.186,-845.245"/>
<text text-anchor="middle" x="71.5" y="-708.3" font-family="Times New Roman,serif" font-size="14.00">back to home</text>
</g>
<!-- www.example.cz/picture -->
<g id="node7" class="node"><title>www.example.cz/picture</title>
<ellipse fill="none" stroke="black" cx="220" cy="-348" rx="36" ry="36"/>
<text text-anchor="middle" x="220" y="-344.3" font-family="Times New Roman,serif" font-size="14.00">www.example.cz/picture</text>
</g>
<!-- www.example.cz/b&#45;&gt;www.example.cz/picture -->
<g id="edge11" class="edge"><title>www.example.cz/b&#45;&gt;www.example.cz/picture</title>
<path fill="none" stroke="black" d="M177.657,-444.271C185.913,-425.695 194.303,-406.818 201.413,-390.821"/>
<polygon fill="black" stroke="black" points="204.798,-391.821 205.662,-381.262 198.402,-388.978 204.798,-391.821"/>
<text text-anchor="middle" x="214" y="-406.3" font-family="Times New Roman,serif" font-size="14.00">parrot</text>
</g>
<!-- www.example.cz/f -->
<g id="node9" class="node"><title>www.example.cz/f</title>
<ellipse fill="red" stroke="black" cx="36" cy="-348" rx="36" ry="36"/>
<text text-anchor="middle" x="36" y="-344.3" font-family="Times New Roman,serif" font-size="14.00">www.example.cz/f</text>
</g>
<!-- www.example.cz/b&#45;&gt;www.example.cz/f -->
<g id="edge13" class="edge"><title>www.example.cz/b&#45;&gt;www.example.cz/f</title>
<path fill="none" stroke="black" d="M69.3441,-468.445C56.2149,-453.406 44.3365,-436.301 37,-418 34.0223,-410.572 32.5305,-402.323 31.9518,-394.186"/>
<polygon fill="black" stroke="black" points="35.4454,-393.908 31.664,-384.011 28.4482,-394.106 35.4454,-393.908"/>
<text text-anchor="middle" x="81.5" y="-406.3" font-family="Times New Roman,serif" font-size="14.00">brand new page</text>
</g>
<!-- www.example.cz/b&#45;&gt;www.example.cz/css -->
<g id="edge16" class="edge"><title>www.example.cz/b&#45;&gt;www.example.cz/css</title>
<path fill="none" stroke="black" d="M135.734,-436.334C135.062,-387.362 137.312,-333.112 149,-312 179.215,-257.424 233.694,-215.908 285.347,-186.493"/>
<polygon fill="black" stroke="black" points="287.251,-189.438 294.278,-181.509 283.84,-183.325 287.251,-189.438"/>
<text text-anchor="middle" x="162" y="-344.3" font-family="Times New Roman,serif" font-size="14.00">style</text>
</g>
<!-- www.example.cz/falsepicture -->
<g id="node8" class="node"><title>www.example.cz/falsepicture</title>
<ellipse fill="red" stroke="black" cx="576" cy="-530" rx="36" ry="36"/>
<text text-anchor="middle" x="576" y="-526.3" font-family="Times New Roman,serif" font-size="14.00">www.example.cz/falsepicture</text>
</g>
<!-- www.example.cz/e&#45;&gt;www.example.cz/falsepicture -->
<g id="edge12" class="edge"><title>www.example.cz/e&#45;&gt;www.example.cz/falsepicture</title>
<path fill="none" stroke="black" d="M576,-675.867C576,-647.372 576,-607.01 576,-576.125"/>
<polygon fill="black" stroke="black" points="579.5,-576.044 576,-566.045 572.5,-576.045 579.5,-576.044"/>
<text text-anchor="middle" x="599" y="-646.3" font-family="Times New Roman,serif" font-size="14.00">elephant</text>
</g>
<!-- www.example.cz/e&#45;&gt;www.example.cz/css -->
<g id="edge19" class="edge"><title>www.example.cz/e&#45;&gt;www.example.cz/css</title>
<path fill="none" stroke="black" d="M603.87,-689.04C612.679,-680.415 621.33,-669.756 626,-658 634.24,-637.258 723.702,-755.085 621,-436 597.277,-362.294 549.623,-290.231 505.907,-234.673"/>
<polygon fill="black" stroke="black" points="508.451,-232.249 499.49,-226.598 502.971,-236.604 508.451,-232.249"/>
<text text-anchor="middle" x="626" y="-406.3" font-family="Times New Roman,serif" font-size="14.00">style</text>
</g>
<!-- www.example.cz/d -->
<g id="node6" class="node"><title>www.example.cz/d</title>
<ellipse fill="none" stroke="black" cx="370" cy="-348" rx="36" ry="36"/>
<text text-anchor="middle" x="370" y="-344.3" font-family="Times New Roman,serif" font-size="14.00">www.example.cz/d</text>
</g>
<!-- www.example.cz/c&#45;&gt;www.example.cz/d -->
<g id="edge8" class="edge"><title>www.example.cz/c&#45;&gt;www.example.cz/d</title>
<path fill="none" stroke="black" d="M387.379,-457.914C386.76,-439.63 385.468,-420.031 383,-402 382.589,-398.999 382.078,-395.921 381.499,-392.833"/>
<polygon fill="black" stroke="black" points="384.919,-392.086 379.452,-383.01 378.066,-393.514 384.919,-392.086"/>
<text text-anchor="middle" x="397" y="-406.3" font-family="Times New Roman,serif" font-size="14.00">next</text>
</g>
<!-- www.example.cz/c&#45;&gt;www.example.cz/css -->
<g id="edge17" class="edge"><title>www.example.cz/c&#45;&gt;www.example.cz/css</title>
<path fill="none" stroke="black" d="M405.073,-460.072C408.159,-446.222 411.006,-431.71 413,-418 419.996,-369.895 421.66,-316.773 421.039,-269.445"/>
<polygon fill="black" stroke="black" points="424.539,-269.378 420.873,-259.437 417.54,-269.494 424.539,-269.378"/>
<text text-anchor="middle" x="434" y="-344.3" font-family="Times New Roman,serif" font-size="14.00">style</text>
</g>
<!-- www.example.cz/d&#45;&gt;www.example.cz/c -->
<g id="edge9" class="edge"><title>www.example.cz/d&#45;&gt;www.example.cz/c</title>
<path fill="none" stroke="black" d="M344.314,-373.69C334.359,-386.218 326.161,-402.119 330,-418 333.371,-431.943 338.812,-446.1 345.026,-459.427"/>
<polygon fill="black" stroke="black" points="341.919,-461.042 349.436,-468.508 348.216,-457.984 341.919,-461.042"/>
<text text-anchor="middle" x="354.5" y="-406.3" font-family="Times New Roman,serif" font-size="14.00">previous</text>
</g>
<!-- www.example.cz/d&#45;&gt;www.example.cz/css -->
<g id="edge18" class="edge"><title>www.example.cz/d&#45;&gt;www.example.cz/css</title>
<path fill="none" stroke="black" d="M376.909,-312.296C379.489,-299.336 382.599,-283.711 385.899,-267.135"/>
<polygon fill="black" stroke="black" points="389.341,-267.769 387.861,-257.278 382.476,-266.402 389.341,-267.769"/>
<text text-anchor="middle" x="396" y="-282.3" font-family="Times New Roman,serif" font-size="14.00">style</text>
</g>
</g>
</svg>
