<?xml version="1.0" encoding="UTF-8" standalone="no"?>
<!DOCTYPE svg PUBLIC "-//W3C//DTD SVG 1.1//EN"
 "http://www.w3.org/Graphics/SVG/1.1/DTD/svg11.dtd">
<!-- Generated by graphviz version 2.30.1 (20130214.1330)
 -->
<!-- Title: a b Pages: 1 -->
<svg width="666pt" height="1046pt"
 viewBox="0.00 0.00 666.00 1046.00" xmlns="http://www.w3.org/2000/svg" xmlns:xlink="http://www.w3.org/1999/xlink">
<g id="graph0" class="graph" transform="scale(1 1) rotate(0) translate(4 1042)">
<title>a b</title>
<polygon fill="white" stroke="white" points="-4,5 -4,-1042 663,-1042 663,5 -4,5"/>
<!-- 1 -->
<g id="node1" class="node"><title>1</title>
<g id="a_node1"><a xlink:href="http://www.seznam.cz/" xlink:title="http://www.seznam.cz/">
<ellipse fill="green" stroke="green" cx="437" cy="-948" rx="90" ry="90"/>
<text text-anchor="middle" x="437" y="-944.3" font-family="Times New Roman,serif" font-size="14.00">1</text>
</a>
</g>
</g>
<!-- www.example.cz/a -->
<g id="node2" class="node"><title>www.example.cz/a</title>
<ellipse fill="none" stroke="black" cx="437" cy="-784" rx="36" ry="36"/>
<text text-anchor="middle" x="437" y="-780.3" font-family="Times New Roman,serif" font-size="14.00">www.example.cz/a</text>
</g>
<!-- 1&#45;&gt;www.example.cz/a -->
<g id="edge1" class="edge"><title>1&#45;&gt;www.example.cz/a</title>
<g id="a_edge1"><a xlink:title="go to a">
<path fill="none" stroke="black" d="M437,-857.944C437,-848.43 437,-839.067 437,-830.385"/>
<polygon fill="black" stroke="black" points="440.5,-830.169 437,-820.169 433.5,-830.169 440.5,-830.169"/>
</a>
</g>
</g>
<!-- www.example.cz/home -->
<g id="node3" class="node"><title>www.example.cz/home</title>
<ellipse fill="none" stroke="black" cx="260" cy="-624" rx="94.338" ry="18"/>
<text text-anchor="middle" x="260" y="-620.3" font-family="Times New Roman,serif" font-size="14.00">www.example.cz/home</text>
</g>
<!-- www.example.cz/a&#45;&gt;www.example.cz/home -->
<g id="edge5" class="edge"><title>www.example.cz/a&#45;&gt;www.example.cz/home</title>
<path fill="none" stroke="black" d="M401.858,-776.07C373.436,-768.86 334.002,-755.008 308,-730 285.852,-708.698 273.016,-675.252 266.283,-651.848"/>
<polygon fill="black" stroke="black" points="269.662,-650.936 263.684,-642.189 262.903,-652.755 269.662,-650.936"/>
<text text-anchor="middle" x="346.5" y="-718.3" font-family="Times New Roman,serif" font-size="14.00">back to home</text>
</g>
<!-- www.example.cz/b -->
<g id="node4" class="node"><title>www.example.cz/b</title>
<ellipse fill="none" stroke="black" cx="175" cy="-406" rx="93.25" ry="93.5"/>
<text text-anchor="middle" x="175" y="-402.3" font-family="Times New Roman,serif" font-size="14.00">www.example.cz/b</text>
</g>
<!-- www.example.cz/a&#45;&gt;www.example.cz/b -->
<g id="edge6" class="edge"><title>www.example.cz/a&#45;&gt;www.example.cz/b</title>
<path fill="none" stroke="black" d="M427.686,-748.948C408.779,-680.925 366.158,-533.403 348,-518 323.503,-497.22 306.297,-515.205 278,-500 267.554,-494.387 257.318,-487.495 247.596,-480.023"/>
<polygon fill="black" stroke="black" points="249.562,-477.114 239.558,-473.625 245.203,-482.591 249.562,-477.114"/>
<text text-anchor="middle" x="437.5" y="-620.3" font-family="Times New Roman,serif" font-size="14.00">turn to b</text>
</g>
<!-- www.example.cz/c -->
<g id="node6" class="node"><title>www.example.cz/c</title>
<ellipse fill="none" stroke="black" cx="586" cy="-624" rx="72" ry="72"/>
<text text-anchor="middle" x="586" y="-620.3" font-family="Times New Roman,serif" font-size="14.00">www.example.cz/c</text>
</g>
<!-- www.example.cz/a&#45;&gt;www.example.cz/c -->
<g id="edge7" class="edge"><title>www.example.cz/a&#45;&gt;www.example.cz/c</title>
<path fill="none" stroke="black" d="M462.306,-758.154C471.153,-749.347 481.097,-739.311 490,-730 503.592,-715.786 518.015,-700.257 531.438,-685.606"/>
<polygon fill="black" stroke="black" points="534.194,-687.778 538.357,-678.035 529.027,-683.056 534.194,-687.778"/>
<text text-anchor="middle" x="523" y="-718.3" font-family="Times New Roman,serif" font-size="14.00">go to c</text>
</g>
<!-- www.example.cz/css -->
<g id="node11" class="node"><title>www.example.cz/css</title>
<ellipse fill="none" stroke="black" cx="471" cy="-130" rx="129.25" ry="129.5"/>
<text text-anchor="middle" x="471" y="-126.3" font-family="Times New Roman,serif" font-size="14.00">www.example.cz/css</text>
</g>
<!-- www.example.cz/a&#45;&gt;www.example.cz/css -->
<g id="edge15" class="edge"><title>www.example.cz/a&#45;&gt;www.example.cz/css</title>
<path fill="none" stroke="black" d="M448.843,-749.578C453.929,-733.584 459.314,-714.031 462,-696 483.484,-551.773 483.054,-384.555 478.915,-269.666"/>
<polygon fill="black" stroke="black" points="482.402,-269.271 478.53,-259.409 475.407,-269.533 482.402,-269.271"/>
<text text-anchor="middle" x="492" y="-522.3" font-family="Times New Roman,serif" font-size="14.00">style</text>
</g>
<!-- www.example.cz/home&#45;&gt;www.example.cz/b -->
<g id="edge2" class="edge"><title>www.example.cz/home&#45;&gt;www.example.cz/b</title>
<path fill="none" stroke="green" d="M240.719,-606.065C223.38,-589.57 198.869,-562.827 187,-534 183.818,-526.272 181.314,-518.064 179.356,-509.683"/>
<polygon fill="green" stroke="green" points="182.761,-508.865 177.301,-499.786 175.907,-510.288 182.761,-508.865"/>
<text text-anchor="middle" x="207.5" y="-522.3" font-family="Times New Roman,serif" font-size="14.00">go to b</text>
</g>
<!-- www.example.cz/e -->
<g id="node5" class="node"><title>www.example.cz/e</title>
<ellipse fill="none" stroke="black" cx="323" cy="-406" rx="36" ry="36"/>
<text text-anchor="middle" x="323" y="-402.3" font-family="Times New Roman,serif" font-size="14.00">www.example.cz/e</text>
</g>
<!-- www.example.cz/home&#45;&gt;www.example.cz/e -->
<g id="edge3" class="edge"><title>www.example.cz/home&#45;&gt;www.example.cz/e</title>
<path fill="none" stroke="black" d="M268.811,-606.048C277.62,-588.46 290.977,-559.948 299,-534 307.265,-507.27 313.173,-476.451 317.058,-451.866"/>
<polygon fill="black" stroke="black" points="320.554,-452.155 318.601,-441.742 313.634,-451.1 320.554,-452.155"/>
<text text-anchor="middle" x="323.5" y="-522.3" font-family="Times New Roman,serif" font-size="14.00">go to b</text>
</g>
<!-- www.example.cz/home&#45;&gt;www.example.cz/b -->
<g id="edge4" class="edge"><title>www.example.cz/home&#45;&gt;www.example.cz/b</title>
<path fill="none" stroke="black" d="M255.663,-606.006C250.116,-585.02 239.804,-548.374 228,-518 225.609,-511.848 223.024,-505.564 220.324,-499.269"/>
<polygon fill="black" stroke="black" points="223.509,-497.815 216.298,-490.052 217.094,-500.617 223.509,-497.815"/>
<text text-anchor="middle" x="258" y="-522.3" font-family="Times New Roman,serif" font-size="14.00">go to b2</text>
</g>
<!-- www.example.cz/home&#45;&gt;www.example.cz/css -->
<g id="edge14" class="edge"><title>www.example.cz/home&#45;&gt;www.example.cz/css</title>
<path fill="none" stroke="black" d="M279.255,-606.144C298.089,-589.084 326.934,-561.384 348,-534 358.69,-520.104 361.141,-516.134 368,-500 399.749,-425.317 424.631,-338.003 441.98,-267.063"/>
<polygon fill="black" stroke="black" points="445.425,-267.707 444.378,-257.164 438.622,-266.059 445.425,-267.707"/>
<text text-anchor="middle" x="444" y="-402.3" font-family="Times New Roman,serif" font-size="14.00">style</text>
</g>
<!-- www.example.cz/b&#45;&gt;www.example.cz/home -->
<g id="edge10" class="edge"><title>www.example.cz/b&#45;&gt;www.example.cz/home</title>
<path fill="none" stroke="black" d="M108.766,-472.039C96.2359,-491.957 90.2584,-513.91 102,-534 122.692,-569.405 163.231,-591.822 198.064,-605.302"/>
<polygon fill="black" stroke="black" points="197.123,-608.685 207.716,-608.87 199.55,-602.12 197.123,-608.685"/>
<text text-anchor="middle" x="140.5" y="-522.3" font-family="Times New Roman,serif" font-size="14.00">back to home</text>
</g>
<!-- www.example.cz/picture -->
<g id="node8" class="node"><title>www.example.cz/picture</title>
<ellipse fill="none" stroke="black" cx="36" cy="-130" rx="36" ry="36"/>
<text text-anchor="middle" x="36" y="-126.3" font-family="Times New Roman,serif" font-size="14.00">www.example.cz/picture</text>
</g>
<!-- www.example.cz/b&#45;&gt;www.example.cz/picture -->
<g id="edge11" class="edge"><title>www.example.cz/b&#45;&gt;www.example.cz/picture</title>
<path fill="none" stroke="black" d="M113.626,-335.428C103.831,-322.238 94.4775,-308.128 87,-294 67.0135,-256.237 53.3687,-209.344 45.2587,-175.562"/>
<polygon fill="black" stroke="black" points="48.5975,-174.468 42.9185,-165.524 41.7803,-176.058 48.5975,-174.468"/>
<text text-anchor="middle" x="104" y="-282.3" font-family="Times New Roman,serif" font-size="14.00">parrot</text>
</g>
<!-- www.example.cz/f -->
<g id="node10" class="node"><title>www.example.cz/f</title>
<ellipse fill="red" stroke="black" cx="126" cy="-130" rx="36" ry="36"/>
<text text-anchor="middle" x="126" y="-126.3" font-family="Times New Roman,serif" font-size="14.00">www.example.cz/f</text>
</g>
<!-- www.example.cz/b&#45;&gt;www.example.cz/f -->
<g id="edge13" class="edge"><title>www.example.cz/b&#45;&gt;www.example.cz/f</title>
<path fill="none" stroke="black" d="M134.782,-321.618C131.625,-312.462 128.922,-303.143 127,-294 118.781,-254.891 119.325,-209.33 121.466,-176.335"/>
<polygon fill="black" stroke="black" points="124.976,-176.315 122.208,-166.088 117.995,-175.809 124.976,-176.315"/>
<text text-anchor="middle" x="171.5" y="-282.3" font-family="Times New Roman,serif" font-size="14.00">brand new page</text>
</g>
<!-- www.example.cz/b&#45;&gt;www.example.cz/css -->
<g id="edge16" class="edge"><title>www.example.cz/b&#45;&gt;www.example.cz/css</title>
<path fill="none" stroke="black" d="M215.698,-321.71C227.069,-305.202 240.833,-289.457 257,-278 284.969,-258.18 301.783,-276.188 332,-260 346.798,-252.072 361.216,-242.184 374.818,-231.432"/>
<polygon fill="black" stroke="black" points="377.172,-234.029 382.729,-225.009 372.76,-228.595 377.172,-234.029"/>
<text text-anchor="middle" x="270" y="-282.3" font-family="Times New Roman,serif" font-size="14.00">style</text>
</g>
<!-- www.example.cz/falsepicture -->
<g id="node9" class="node"><title>www.example.cz/falsepicture</title>
<ellipse fill="red" stroke="black" cx="287" cy="-130" rx="36" ry="36"/>
<text text-anchor="middle" x="287" y="-126.3" font-family="Times New Roman,serif" font-size="14.00">www.example.cz/falsepicture</text>
</g>
<!-- www.example.cz/e&#45;&gt;www.example.cz/falsepicture -->
<g id="edge12" class="edge"><title>www.example.cz/e&#45;&gt;www.example.cz/falsepicture</title>
<path fill="none" stroke="black" d="M309.771,-372.109C301.734,-350.342 292.233,-320.948 288,-294 281.799,-254.521 282.135,-208.997 283.683,-176.111"/>
<polygon fill="black" stroke="black" points="287.19,-176.072 284.221,-165.902 280.2,-175.704 287.19,-176.072"/>
<text text-anchor="middle" x="311" y="-282.3" font-family="Times New Roman,serif" font-size="14.00">elephant</text>
</g>
<!-- www.example.cz/e&#45;&gt;www.example.cz/css -->
<g id="edge19" class="edge"><title>www.example.cz/e&#45;&gt;www.example.cz/css</title>
<path fill="none" stroke="black" d="M328.44,-370.251C333.459,-343.946 342.39,-307.443 357,-278 363.83,-264.236 372.059,-250.51 380.931,-237.284"/>
<polygon fill="black" stroke="black" points="384.071,-238.895 386.846,-228.67 378.3,-234.932 384.071,-238.895"/>
<text text-anchor="middle" x="370" y="-282.3" font-family="Times New Roman,serif" font-size="14.00">style</text>
</g>
<!-- www.example.cz/d -->
<g id="node7" class="node"><title>www.example.cz/d</title>
<ellipse fill="none" stroke="black" cx="535" cy="-406" rx="36" ry="36"/>
<text text-anchor="middle" x="535" y="-402.3" font-family="Times New Roman,serif" font-size="14.00">www.example.cz/d</text>
</g>
<!-- www.example.cz/c&#45;&gt;www.example.cz/d -->
<g id="edge8" class="edge"><title>www.example.cz/c&#45;&gt;www.example.cz/d</title>
<path fill="none" stroke="black" d="M576.772,-552.397C574.824,-540.845 572.567,-529.046 570,-518 564.694,-495.166 557.009,-470.231 550.191,-449.789"/>
<polygon fill="black" stroke="black" points="553.448,-448.495 546.928,-440.144 546.817,-450.738 553.448,-448.495"/>
<text text-anchor="middle" x="585" y="-522.3" font-family="Times New Roman,serif" font-size="14.00">next</text>
</g>
<!-- www.example.cz/c&#45;&gt;www.example.cz/css -->
<g id="edge17" class="edge"><title>www.example.cz/c&#45;&gt;www.example.cz/css</title>
<path fill="none" stroke="black" d="M598.963,-552.694C599.788,-546.39 600.49,-540.09 601,-534 607.572,-455.462 636.332,-480.959 580,-312 572.454,-289.367 561.707,-266.552 549.872,-245.107"/>
<polygon fill="black" stroke="black" points="552.882,-243.32 544.924,-236.326 546.784,-246.756 552.882,-243.32"/>
<text text-anchor="middle" x="627" y="-402.3" font-family="Times New Roman,serif" font-size="14.00">style</text>
</g>
<!-- www.example.cz/d&#45;&gt;www.example.cz/c -->
<g id="edge9" class="edge"><title>www.example.cz/d&#45;&gt;www.example.cz/c</title>
<path fill="none" stroke="black" d="M522.14,-439.888C513.858,-466.004 506.436,-503.134 517,-534 520.358,-543.813 525.287,-553.38 530.992,-562.382"/>
<polygon fill="black" stroke="black" points="528.189,-564.485 536.674,-570.83 533.997,-560.579 528.189,-564.485"/>
<text text-anchor="middle" x="541.5" y="-522.3" font-family="Times New Roman,serif" font-size="14.00">previous</text>
</g>
<!-- www.example.cz/d&#45;&gt;www.example.cz/css -->
<g id="edge18" class="edge"><title>www.example.cz/d&#45;&gt;www.example.cz/css</title>
<path fill="none" stroke="black" d="M527.024,-370.852C520.784,-344.137 511.672,-305.127 502.603,-266.298"/>
<polygon fill="black" stroke="black" points="505.982,-265.38 500.299,-256.438 499.166,-266.972 505.982,-265.38"/>
<text text-anchor="middle" x="521" y="-282.3" font-family="Times New Roman,serif" font-size="14.00">style</text>
</g>
</g>
</svg>
