<?xml version="1.0" encoding="UTF-8" standalone="no"?>
<!DOCTYPE svg PUBLIC "-//W3C//DTD SVG 1.1//EN"
 "http://www.w3.org/Graphics/SVG/1.1/DTD/svg11.dtd">
<!-- Generated by graphviz version 2.30.1 (20130214.1330)
 -->
<!-- Title: %3 Pages: 1 -->
<svg width="1031pt" height="396pt"
 viewBox="0.00 0.00 1031.04 396.00" xmlns="http://www.w3.org/2000/svg" xmlns:xlink="http://www.w3.org/1999/xlink">
<g id="graph0" class="graph" transform="scale(1 1) rotate(0) translate(4 392)">
<title>%3</title>
<polygon fill="white" stroke="white" points="-4,5 -4,-392 1028.04,-392 1028.04,5 -4,5"/>
<!-- www.example.cz/home -->
<g id="node1" class="node"><title>www.example.cz/home</title>
<ellipse fill="none" stroke="green" stroke-width="2" cx="462.043" cy="-370" rx="94.338" ry="18"/>
<text text-anchor="middle" x="462.043" y="-366.3" font-family="Times New Roman,serif" font-size="14.00">www.example.cz/home</text>
</g>
<!-- www.example.cz/a -->
<g id="node2" class="node"><title>www.example.cz/a</title>
<ellipse fill="none" stroke="black" cx="223.043" cy="-282" rx="78.9404" ry="18"/>
<text text-anchor="middle" x="223.043" y="-278.3" font-family="Times New Roman,serif" font-size="14.00">www.example.cz/a</text>
</g>
<!-- www.example.cz/home&#45;&gt;www.example.cz/a -->
<g id="edge1" class="edge"><title>www.example.cz/home&#45;&gt;www.example.cz/a</title>
<path fill="none" stroke="black" d="M368.467,-367.294C310.274,-364.043 243.023,-355.545 224.043,-334 218.383,-327.575 216.856,-318.728 217.147,-310.206"/>
<polygon fill="black" stroke="black" points="220.638,-310.477 218.249,-300.155 213.68,-309.714 220.638,-310.477"/>
<text text-anchor="middle" x="244.043" y="-322.3" font-family="Times New Roman,serif" font-size="14.00">go to a</text>
</g>
<!-- www.example.cz/b -->
<g id="node3" class="node"><title>www.example.cz/b</title>
<ellipse fill="none" stroke="black" stroke-width="2.6" cx="402.043" cy="-194" rx="79.4147" ry="18"/>
<text text-anchor="middle" x="402.043" y="-190.3" font-family="Times New Roman,serif" font-size="14.00">www.example.cz/b</text>
</g>
<!-- www.example.cz/home&#45;&gt;www.example.cz/b -->
<g id="edge2" class="edge"><title>www.example.cz/home&#45;&gt;www.example.cz/b</title>
<path fill="none" stroke="black" d="M457.3,-351.751C451.427,-330.819 440.867,-294.535 430.043,-264 425.033,-249.866 418.815,-234.375 413.512,-221.658"/>
<polygon fill="black" stroke="black" points="416.606,-219.988 409.496,-212.133 410.156,-222.707 416.606,-219.988"/>
<text text-anchor="middle" x="462.543" y="-278.3" font-family="Times New Roman,serif" font-size="14.00">go to b</text>
</g>
<!-- www.example.cz/e -->
<g id="node6" class="node"><title>www.example.cz/e</title>
<ellipse fill="none" stroke="black" cx="886.043" cy="-282" rx="78.9404" ry="18"/>
<text text-anchor="middle" x="886.043" y="-278.3" font-family="Times New Roman,serif" font-size="14.00">www.example.cz/e</text>
</g>
<!-- www.example.cz/home&#45;&gt;www.example.cz/e -->
<g id="edge3" class="edge"><title>www.example.cz/home&#45;&gt;www.example.cz/e</title>
<path fill="none" stroke="black" d="M548.972,-362.797C604.211,-357.693 676.941,-348.819 740.043,-334 774.297,-325.956 811.741,-312.783 840.132,-301.84"/>
<polygon fill="black" stroke="black" points="841.735,-304.972 849.777,-298.075 839.189,-298.451 841.735,-304.972"/>
<text text-anchor="middle" x="813.543" y="-322.3" font-family="Times New Roman,serif" font-size="14.00">go to b</text>
</g>
<!-- www.example.cz/home&#45;&gt;www.example.cz/b -->
<g id="edge4" class="edge"><title>www.example.cz/home&#45;&gt;www.example.cz/b</title>
<path fill="none" stroke="black" d="M430.783,-352.765C411.696,-340.963 388.931,-323.034 378.043,-300 366.07,-274.67 376.333,-243.024 386.905,-221.13"/>
<polygon fill="black" stroke="black" points="390.086,-222.597 391.548,-212.104 383.861,-219.396 390.086,-222.597"/>
<text text-anchor="middle" x="402.043" y="-278.3" font-family="Times New Roman,serif" font-size="14.00">go to b2</text>
</g>
<!-- www.example.cz/css -->
<g id="node7" class="node"><title>www.example.cz/css</title>
<ellipse fill="none" stroke="black" stroke-width="3.6" cx="249.043" cy="-18" rx="87.1385" ry="18"/>
<text text-anchor="middle" x="249.043" y="-14.3" font-family="Times New Roman,serif" font-size="14.00">www.example.cz/css</text>
</g>
<!-- www.example.cz/home&#45;&gt;www.example.cz/css -->
<g id="edge14" class="edge"><title>www.example.cz/home&#45;&gt;www.example.cz/css</title>
<path fill="none" stroke="black" d="M538.049,-359.256C616.04,-347.072 726.043,-322.828 726.043,-283 726.043,-283 726.043,-283 726.043,-105 726.043,-66.0826 476.951,-38.5019 338.774,-26.1961"/>
<polygon fill="black" stroke="black" points="338.883,-22.6922 328.614,-25.301 338.268,-29.6652 338.883,-22.6922"/>
<text text-anchor="middle" x="739.043" y="-190.3" font-family="Times New Roman,serif" font-size="14.00">style</text>
</g>
<!-- www.example.cz/a&#45;&gt;www.example.cz/home -->
<g id="edge5" class="edge"><title>www.example.cz/a&#45;&gt;www.example.cz/home</title>
<path fill="none" stroke="black" d="M242.737,-299.468C259.642,-313.473 282.051,-331.679 287.043,-334 312.818,-345.981 342.591,-353.869 370.188,-359.06"/>
<polygon fill="black" stroke="black" points="369.786,-362.543 380.246,-360.853 371.015,-355.652 369.786,-362.543"/>
<text text-anchor="middle" x="325.543" y="-322.3" font-family="Times New Roman,serif" font-size="14.00">back to home</text>
</g>
<!-- www.example.cz/a&#45;&gt;www.example.cz/b -->
<g id="edge6" class="edge"><title>www.example.cz/a&#45;&gt;www.example.cz/b</title>
<path fill="none" stroke="black" d="M249.954,-264.925C268.055,-254.402 292.618,-240.676 315.043,-230 327.226,-224.2 340.638,-218.487 353.208,-213.413"/>
<polygon fill="black" stroke="black" points="354.624,-216.617 362.621,-209.667 352.035,-210.113 354.624,-216.617"/>
<text text-anchor="middle" x="339.543" y="-234.3" font-family="Times New Roman,serif" font-size="14.00">turn to b</text>
</g>
<!-- www.example.cz/c -->
<g id="node4" class="node"><title>www.example.cz/c</title>
<ellipse fill="none" stroke="black" stroke-width="2" cx="164.043" cy="-194" rx="78.9404" ry="18"/>
<text text-anchor="middle" x="164.043" y="-190.3" font-family="Times New Roman,serif" font-size="14.00">www.example.cz/c</text>
</g>
<!-- www.example.cz/a&#45;&gt;www.example.cz/c -->
<g id="edge7" class="edge"><title>www.example.cz/a&#45;&gt;www.example.cz/c</title>
<path fill="none" stroke="black" d="M211.387,-264.009C202.821,-251.524 191.04,-234.352 181.374,-220.261"/>
<polygon fill="black" stroke="black" points="184.219,-218.222 175.676,-211.956 178.447,-222.182 184.219,-218.222"/>
<text text-anchor="middle" x="219.043" y="-234.3" font-family="Times New Roman,serif" font-size="14.00">go to c</text>
</g>
<!-- www.example.cz/a&#45;&gt;www.example.cz/css -->
<g id="edge15" class="edge"><title>www.example.cz/a&#45;&gt;www.example.cz/css</title>
<path fill="none" stroke="black" d="M182.8,-266.394C106.901,-236.62 -44.7921,-165.166 13.0434,-88 32.3232,-62.2762 110.607,-42.9371 171.792,-31.3741"/>
<polygon fill="black" stroke="black" points="172.642,-34.7763 181.839,-29.5155 171.369,-27.8931 172.642,-34.7763"/>
<text text-anchor="middle" x="25.0434" y="-146.3" font-family="Times New Roman,serif" font-size="14.00">style</text>
</g>
<!-- www.example.cz/b&#45;&gt;www.example.cz/home -->
<g id="edge10" class="edge"><title>www.example.cz/b&#45;&gt;www.example.cz/home</title>
<path fill="none" stroke="black" d="M432.81,-210.627C452.291,-222.382 475.847,-240.49 487.043,-264 499.115,-289.348 488.493,-320.992 477.606,-342.879"/>
<polygon fill="black" stroke="black" points="474.414,-341.428 472.828,-351.903 480.601,-344.703 474.414,-341.428"/>
<text text-anchor="middle" x="531.543" y="-278.3" font-family="Times New Roman,serif" font-size="14.00">back to home</text>
</g>
<!-- www.example.cz/picture -->
<g id="node8" class="node"><title>www.example.cz/picture</title>
<ellipse fill="none" stroke="black" cx="598.043" cy="-106" rx="100.137" ry="18"/>
<text text-anchor="middle" x="598.043" y="-102.3" font-family="Times New Roman,serif" font-size="14.00">www.example.cz/picture</text>
</g>
<!-- www.example.cz/b&#45;&gt;www.example.cz/picture -->
<g id="edge11" class="edge"><title>www.example.cz/b&#45;&gt;www.example.cz/picture</title>
<path fill="none" stroke="black" d="M443.139,-178.538C459.444,-172.54 478.271,-165.287 495.043,-158 516.276,-148.775 539.418,-137.438 558.378,-127.796"/>
<polygon fill="black" stroke="black" points="560.017,-130.889 567.323,-123.216 556.826,-124.658 560.017,-130.889"/>
<text text-anchor="middle" x="547.043" y="-146.3" font-family="Times New Roman,serif" font-size="14.00">parrot</text>
</g>
<!-- www.example.cz/f -->
<g id="node10" class="node"><title>www.example.cz/f</title>
<ellipse fill="red" stroke="black" cx="402.043" cy="-106" rx="77.4897" ry="18"/>
<text text-anchor="middle" x="402.043" y="-102.3" font-family="Times New Roman,serif" font-size="14.00">www.example.cz/f</text>
</g>
<!-- www.example.cz/b&#45;&gt;www.example.cz/f -->
<g id="edge13" class="edge"><title>www.example.cz/b&#45;&gt;www.example.cz/f</title>
<path fill="none" stroke="black" d="M402.043,-175.597C402.043,-163.746 402.043,-147.817 402.043,-134.292"/>
<polygon fill="black" stroke="black" points="405.543,-134.084 402.043,-124.084 398.543,-134.084 405.543,-134.084"/>
<text text-anchor="middle" x="446.543" y="-146.3" font-family="Times New Roman,serif" font-size="14.00">brand new page</text>
</g>
<!-- www.example.cz/b&#45;&gt;www.example.cz/css -->
<g id="edge16" class="edge"><title>www.example.cz/b&#45;&gt;www.example.cz/css</title>
<path fill="none" stroke="black" d="M364.806,-177.96C340.342,-166.411 309.242,-148.31 289.043,-124 270.21,-101.333 259.675,-68.8521 254.202,-46.0342"/>
<polygon fill="black" stroke="black" points="257.558,-44.9995 251.971,-35.9976 250.725,-46.519 257.558,-44.9995"/>
<text text-anchor="middle" x="302.043" y="-102.3" font-family="Times New Roman,serif" font-size="14.00">style</text>
</g>
<!-- www.example.cz/d -->
<g id="node5" class="node"><title>www.example.cz/d</title>
<ellipse fill="none" stroke="black" cx="102.043" cy="-106" rx="79.4147" ry="18"/>
<text text-anchor="middle" x="102.043" y="-102.3" font-family="Times New Roman,serif" font-size="14.00">www.example.cz/d</text>
</g>
<!-- www.example.cz/c&#45;&gt;www.example.cz/d -->
<g id="edge8" class="edge"><title>www.example.cz/c&#45;&gt;www.example.cz/d</title>
<path fill="none" stroke="black" d="M127.405,-178.032C119.07,-172.906 111.171,-166.306 106.043,-158 101.761,-151.064 100.036,-142.546 99.5837,-134.472"/>
<polygon fill="black" stroke="black" points="103.084,-134.294 99.6151,-124.284 96.0842,-134.273 103.084,-134.294"/>
<text text-anchor="middle" x="118.043" y="-146.3" font-family="Times New Roman,serif" font-size="14.00">next</text>
</g>
<!-- www.example.cz/c&#45;&gt;www.example.cz/css -->
<g id="edge17" class="edge"><title>www.example.cz/c&#45;&gt;www.example.cz/css</title>
<path fill="none" stroke="black" d="M180.523,-176.074C185.297,-170.598 190.241,-164.305 194.043,-158 216.008,-121.581 232.389,-74.8298 241.335,-45.8977"/>
<polygon fill="black" stroke="black" points="244.754,-46.6816 244.291,-36.0969 238.053,-44.6603 244.754,-46.6816"/>
<text text-anchor="middle" x="240.043" y="-102.3" font-family="Times New Roman,serif" font-size="14.00">style</text>
</g>
<!-- www.example.cz/d&#45;&gt;www.example.cz/c -->
<g id="edge9" class="edge"><title>www.example.cz/d&#45;&gt;www.example.cz/c</title>
<path fill="none" stroke="black" d="M116.017,-123.859C120.594,-129.54 125.634,-135.97 130.043,-142 135.948,-150.075 142.1,-159.095 147.522,-167.279"/>
<polygon fill="black" stroke="black" points="144.663,-169.302 153.073,-175.746 150.518,-165.464 144.663,-169.302"/>
<text text-anchor="middle" x="165.543" y="-146.3" font-family="Times New Roman,serif" font-size="14.00">previous</text>
</g>
<!-- www.example.cz/d&#45;&gt;www.example.cz/css -->
<g id="edge18" class="edge"><title>www.example.cz/d&#45;&gt;www.example.cz/css</title>
<path fill="none" stroke="black" d="M124.816,-88.5568C139.654,-78.1366 159.613,-64.6631 178.043,-54 186.876,-48.8899 196.557,-43.7998 205.852,-39.1479"/>
<polygon fill="black" stroke="black" points="207.547,-42.2147 214.973,-34.6576 204.455,-35.9345 207.547,-42.2147"/>
<text text-anchor="middle" x="191.043" y="-58.3" font-family="Times New Roman,serif" font-size="14.00">style</text>
</g>
<!-- www.example.cz/falsepicture -->
<g id="node9" class="node"><title>www.example.cz/falsepicture</title>
<ellipse fill="red" stroke="black" cx="886.043" cy="-194" rx="116.01" ry="18"/>
<text text-anchor="middle" x="886.043" y="-190.3" font-family="Times New Roman,serif" font-size="14.00">www.example.cz/falsepicture</text>
</g>
<!-- www.example.cz/e&#45;&gt;www.example.cz/falsepicture -->
<g id="edge12" class="edge"><title>www.example.cz/e&#45;&gt;www.example.cz/falsepicture</title>
<path fill="none" stroke="black" d="M886.043,-263.597C886.043,-251.746 886.043,-235.817 886.043,-222.292"/>
<polygon fill="black" stroke="black" points="889.543,-222.084 886.043,-212.084 882.543,-222.084 889.543,-222.084"/>
<text text-anchor="middle" x="909.043" y="-234.3" font-family="Times New Roman,serif" font-size="14.00">elephant</text>
</g>
<!-- www.example.cz/e&#45;&gt;www.example.cz/css -->
<g id="edge19" class="edge"><title>www.example.cz/e&#45;&gt;www.example.cz/css</title>
<path fill="none" stroke="black" d="M928.551,-266.799C974.242,-249.099 1037.05,-216.224 1011.04,-176 939.333,-65.0745 868.119,-86.3056 740.043,-54 667.707,-35.7538 465.662,-26.1161 344.476,-21.8316"/>
<polygon fill="black" stroke="black" points="344.567,-18.3328 334.452,-21.4829 344.324,-25.3286 344.567,-18.3328"/>
<text text-anchor="middle" x="1010.04" y="-146.3" font-family="Times New Roman,serif" font-size="14.00">style</text>
</g>
</g>
</svg>
