<?xml version="1.0" encoding="UTF-8" standalone="no"?>
<!DOCTYPE svg PUBLIC "-//W3C//DTD SVG 1.1//EN"
 "http://www.w3.org/Graphics/SVG/1.1/DTD/svg11.dtd">
<!-- Generated by graphviz version 2.30.1 (20130214.1330)
 -->
<!-- Title: %3 Pages: 1 -->
<svg width="653pt" height="952pt"
 viewBox="0.00 0.00 652.63 952.00" xmlns="http://www.w3.org/2000/svg" xmlns:xlink="http://www.w3.org/1999/xlink">
<g id="graph0" class="graph" transform="scale(1 1) rotate(0) translate(4 948)">
<title>%3</title>
<polygon fill="white" stroke="white" points="-4,5 -4,-948 649.63,-948 649.63,5 -4,5"/>
<!-- www.example.cz/home -->
<g id="node1" class="node"><title>www.example.cz/home</title>
<g id="a_node1"><a xlink:href="www.example.cz/home" xlink:title="www.example.cz/home">
<ellipse fill="none" stroke="green" cx="287.745" cy="-872" rx="72" ry="72"/>
<text text-anchor="middle" x="287.745" y="-868.3" font-family="Times New Roman,serif" font-size="14.00">www.example.cz/home</text>
</a>
</g>
</g>
<!-- www.example.cz/a -->
<g id="node2" class="node"><title>www.example.cz/a</title>
<ellipse fill="none" stroke="black" cx="76.7452" cy="-712" rx="36" ry="36"/>
<text text-anchor="middle" x="76.7452" y="-708.3" font-family="Times New Roman,serif" font-size="14.00">www.example.cz/a</text>
</g>
<!-- www.example.cz/home&#45;&gt;www.example.cz/a -->
<g id="edge1" class="edge"><title>www.example.cz/home&#45;&gt;www.example.cz/a</title>
<path fill="none" stroke="black" d="M215.996,-865.445C160.441,-856.937 86.8952,-835.555 49.7452,-782 42.9288,-772.174 44.6242,-760.384 49.548,-749.354"/>
<polygon fill="black" stroke="black" points="52.7417,-750.802 54.3274,-740.326 46.5552,-747.526 52.7417,-750.802"/>
<text text-anchor="middle" x="69.7452" y="-770.3" font-family="Times New Roman,serif" font-size="14.00">go to a</text>
</g>
<!-- www.example.cz/b -->
<g id="node3" class="node"><title>www.example.cz/b</title>
<ellipse fill="none" stroke="black" cx="289.745" cy="-530" rx="93.25" ry="93.5"/>
<text text-anchor="middle" x="289.745" y="-526.3" font-family="Times New Roman,serif" font-size="14.00">www.example.cz/b</text>
</g>
<!-- www.example.cz/home&#45;&gt;www.example.cz/b -->
<g id="edge2" class="edge"><title>www.example.cz/home&#45;&gt;www.example.cz/b</title>
<path fill="none" stroke="black" d="M288.165,-799.725C288.448,-751.613 288.825,-687.357 289.141,-633.742"/>
<polygon fill="black" stroke="black" points="292.642,-633.536 289.201,-623.515 285.642,-633.494 292.642,-633.536"/>
<text text-anchor="middle" x="310.245" y="-708.3" font-family="Times New Roman,serif" font-size="14.00">go to b</text>
</g>
<!-- www.example.cz/e -->
<g id="node6" class="node"><title>www.example.cz/e</title>
<ellipse fill="none" stroke="black" cx="549.745" cy="-712" rx="36" ry="36"/>
<text text-anchor="middle" x="549.745" y="-708.3" font-family="Times New Roman,serif" font-size="14.00">www.example.cz/e</text>
</g>
<!-- www.example.cz/home&#45;&gt;www.example.cz/e -->
<g id="edge3" class="edge"><title>www.example.cz/home&#45;&gt;www.example.cz/e</title>
<path fill="none" stroke="black" d="M355.564,-847.614C394.961,-832.272 444.423,-809.891 483.745,-782 497.166,-772.481 510.101,-759.971 520.91,-748.219"/>
<polygon fill="black" stroke="black" points="523.628,-750.431 527.69,-740.646 518.412,-745.762 523.628,-750.431"/>
<text text-anchor="middle" x="522.245" y="-770.3" font-family="Times New Roman,serif" font-size="14.00">go to b</text>
</g>
<!-- www.example.cz/home&#45;&gt;www.example.cz/b -->
<g id="edge4" class="edge"><title>www.example.cz/home&#45;&gt;www.example.cz/b</title>
<path fill="none" stroke="black" d="M255.813,-807.387C247.985,-788.72 240.718,-767.951 236.745,-748 228.665,-707.415 236.529,-662.961 248.449,-624.915"/>
<polygon fill="black" stroke="black" points="251.784,-625.98 251.56,-615.387 245.129,-623.807 251.784,-625.98"/>
<text text-anchor="middle" x="260.745" y="-708.3" font-family="Times New Roman,serif" font-size="14.00">go to b2</text>
</g>
<!-- www.example.cz/css -->
<g id="node7" class="node"><title>www.example.cz/css</title>
<ellipse fill="none" stroke="black" cx="200.745" cy="-130" rx="129.25" ry="129.5"/>
<text text-anchor="middle" x="200.745" y="-126.3" font-family="Times New Roman,serif" font-size="14.00">www.example.cz/css</text>
</g>
<!-- www.example.cz/home&#45;&gt;www.example.cz/css -->
<g id="edge14" class="edge"><title>www.example.cz/home&#45;&gt;www.example.cz/css</title>
<path fill="none" stroke="black" d="M354.482,-844.951C406.425,-819.8 469.745,-776.183 469.745,-713 469.745,-713 469.745,-713 469.745,-347 469.745,-268.901 399.955,-214.323 331.47,-179.566"/>
<polygon fill="black" stroke="black" points="332.774,-176.307 322.26,-175.004 329.667,-182.579 332.774,-176.307"/>
<text text-anchor="middle" x="482.745" y="-526.3" font-family="Times New Roman,serif" font-size="14.00">style</text>
</g>
<!-- www.example.cz/a&#45;&gt;www.example.cz/home -->
<g id="edge5" class="edge"><title>www.example.cz/a&#45;&gt;www.example.cz/home</title>
<path fill="none" stroke="black" d="M88.8552,-745.93C94.6435,-758.364 102.565,-771.925 112.745,-782 140.094,-809.066 177.352,-829.568 210.462,-844.031"/>
<polygon fill="black" stroke="black" points="209.107,-847.258 219.679,-847.951 211.846,-840.817 209.107,-847.258"/>
<text text-anchor="middle" x="151.245" y="-770.3" font-family="Times New Roman,serif" font-size="14.00">back to home</text>
</g>
<!-- www.example.cz/a&#45;&gt;www.example.cz/b -->
<g id="edge6" class="edge"><title>www.example.cz/a&#45;&gt;www.example.cz/b</title>
<path fill="none" stroke="black" d="M98.0214,-682.616C109.466,-668.889 124.541,-653.038 140.745,-642 158.89,-629.64 168.072,-635.544 186.745,-624 196.751,-617.814 206.688,-610.604 216.217,-602.987"/>
<polygon fill="black" stroke="black" points="218.606,-605.554 224.118,-596.506 214.166,-600.142 218.606,-605.554"/>
<text text-anchor="middle" x="165.245" y="-646.3" font-family="Times New Roman,serif" font-size="14.00">turn to b</text>
</g>
<!-- www.example.cz/c -->
<g id="node4" class="node"><title>www.example.cz/c</title>
<ellipse fill="none" stroke="black" cx="105.745" cy="-530" rx="72" ry="72"/>
<text text-anchor="middle" x="105.745" y="-526.3" font-family="Times New Roman,serif" font-size="14.00">www.example.cz/c</text>
</g>
<!-- www.example.cz/a&#45;&gt;www.example.cz/c -->
<g id="edge7" class="edge"><title>www.example.cz/a&#45;&gt;www.example.cz/c</title>
<path fill="none" stroke="black" d="M75.6807,-675.783C75.7743,-664.913 76.3077,-652.928 77.7452,-642 79.1443,-631.364 81.1982,-620.279 83.5686,-609.406"/>
<polygon fill="black" stroke="black" points="87.0166,-610.027 85.8247,-599.5 80.1914,-608.473 87.0166,-610.027"/>
<text text-anchor="middle" x="97.7452" y="-646.3" font-family="Times New Roman,serif" font-size="14.00">go to c</text>
</g>
<!-- www.example.cz/a&#45;&gt;www.example.cz/css -->
<g id="edge15" class="edge"><title>www.example.cz/a&#45;&gt;www.example.cz/css</title>
<path fill="none" stroke="black" d="M54.7005,-683.014C43.3346,-666.782 30.6455,-645.372 24.7452,-624 -12.3048,-489.796 -10.6814,-435.937 52.7452,-312 66.9287,-284.285 85.8982,-256.93 105.513,-232.207"/>
<polygon fill="black" stroke="black" points="108.354,-234.26 111.899,-224.276 102.901,-229.87 108.354,-234.26"/>
<text text-anchor="middle" x="27.7452" y="-406.3" font-family="Times New Roman,serif" font-size="14.00">style</text>
</g>
<!-- www.example.cz/b&#45;&gt;www.example.cz/home -->
<g id="edge10" class="edge"><title>www.example.cz/b&#45;&gt;www.example.cz/home</title>
<path fill="none" stroke="black" d="M323.269,-617.416C334.652,-657.117 342.705,-704.867 334.745,-748 331.773,-764.103 326.785,-780.825 321.141,-796.559"/>
<polygon fill="black" stroke="black" points="317.756,-795.62 317.554,-806.213 324.317,-798.058 317.756,-795.62"/>
<text text-anchor="middle" x="377.245" y="-708.3" font-family="Times New Roman,serif" font-size="14.00">back to home</text>
</g>
<!-- www.example.cz/picture -->
<g id="node8" class="node"><title>www.example.cz/picture</title>
<ellipse fill="none" stroke="black" cx="404.745" cy="-348" rx="36" ry="36"/>
<text text-anchor="middle" x="404.745" y="-344.3" font-family="Times New Roman,serif" font-size="14.00">www.example.cz/picture</text>
</g>
<!-- www.example.cz/b&#45;&gt;www.example.cz/picture -->
<g id="edge11" class="edge"><title>www.example.cz/b&#45;&gt;www.example.cz/picture</title>
<path fill="none" stroke="black" d="M353.452,-461.265C364.232,-447.612 374.564,-432.868 382.745,-418 387.017,-410.236 390.604,-401.518 393.56,-392.959"/>
<polygon fill="black" stroke="black" points="396.897,-394.014 396.631,-383.422 390.234,-391.868 396.897,-394.014"/>
<text text-anchor="middle" x="406.745" y="-406.3" font-family="Times New Roman,serif" font-size="14.00">parrot</text>
</g>
<!-- www.example.cz/f -->
<g id="node10" class="node"><title>www.example.cz/f</title>
<ellipse fill="red" stroke="black" cx="311.745" cy="-348" rx="36" ry="36"/>
<text text-anchor="middle" x="311.745" y="-344.3" font-family="Times New Roman,serif" font-size="14.00">www.example.cz/f</text>
</g>
<!-- www.example.cz/b&#45;&gt;www.example.cz/f -->
<g id="edge13" class="edge"><title>www.example.cz/b&#45;&gt;www.example.cz/f</title>
<path fill="none" stroke="black" d="M289.469,-436.408C290.371,-424.769 291.737,-413.07 293.745,-402 294.371,-398.549 295.179,-395.017 296.104,-391.497"/>
<polygon fill="black" stroke="black" points="299.527,-392.259 298.969,-381.679 292.807,-390.298 299.527,-392.259"/>
<text text-anchor="middle" x="338.245" y="-406.3" font-family="Times New Roman,serif" font-size="14.00">brand new page</text>
</g>
<!-- www.example.cz/b&#45;&gt;www.example.cz/css -->
<g id="edge16" class="edge"><title>www.example.cz/b&#45;&gt;www.example.cz/css</title>
<path fill="none" stroke="black" d="M257.66,-441.908C251.44,-422.992 245.413,-402.964 240.745,-384 231.623,-346.938 224.121,-306.289 218.179,-268.623"/>
<polygon fill="black" stroke="black" points="221.616,-267.947 216.623,-258.602 214.699,-269.021 221.616,-267.947"/>
<text text-anchor="middle" x="253.745" y="-344.3" font-family="Times New Roman,serif" font-size="14.00">style</text>
</g>
<!-- www.example.cz/d -->
<g id="node5" class="node"><title>www.example.cz/d</title>
<ellipse fill="none" stroke="black" cx="97.7452" cy="-348" rx="36" ry="36"/>
<text text-anchor="middle" x="97.7452" y="-344.3" font-family="Times New Roman,serif" font-size="14.00">www.example.cz/d</text>
</g>
<!-- www.example.cz/c&#45;&gt;www.example.cz/d -->
<g id="edge8" class="edge"><title>www.example.cz/c&#45;&gt;www.example.cz/d</title>
<path fill="none" stroke="black" d="M74.3246,-465.191C68.2908,-450.072 62.8802,-433.753 59.7452,-418 58.3573,-411.026 57.569,-408.77 59.7452,-402 61.7462,-395.775 64.7781,-389.662 68.2741,-383.926"/>
<polygon fill="black" stroke="black" points="71.4184,-385.521 74.0683,-375.262 65.5997,-381.629 71.4184,-385.521"/>
<text text-anchor="middle" x="71.7452" y="-406.3" font-family="Times New Roman,serif" font-size="14.00">next</text>
</g>
<!-- www.example.cz/c&#45;&gt;www.example.cz/css -->
<g id="edge17" class="edge"><title>www.example.cz/c&#45;&gt;www.example.cz/css</title>
<path fill="none" stroke="black" d="M137.244,-465.194C143.803,-450.006 150.119,-433.656 154.745,-418 168.83,-370.335 178.886,-316.864 185.928,-269.11"/>
<polygon fill="black" stroke="black" points="189.422,-269.408 187.386,-259.011 182.493,-268.408 189.422,-269.408"/>
<text text-anchor="middle" x="191.745" y="-344.3" font-family="Times New Roman,serif" font-size="14.00">style</text>
</g>
<!-- www.example.cz/d&#45;&gt;www.example.cz/c -->
<g id="edge9" class="edge"><title>www.example.cz/d&#45;&gt;www.example.cz/c</title>
<path fill="none" stroke="black" d="M99.304,-384.073C100.113,-402.275 101.138,-425.33 102.13,-447.667"/>
<polygon fill="black" stroke="black" points="98.6428,-448.025 102.583,-457.859 105.636,-447.714 98.6428,-448.025"/>
<text text-anchor="middle" x="126.245" y="-406.3" font-family="Times New Roman,serif" font-size="14.00">previous</text>
</g>
<!-- www.example.cz/d&#45;&gt;www.example.cz/css -->
<g id="edge18" class="edge"><title>www.example.cz/d&#45;&gt;www.example.cz/css</title>
<path fill="none" stroke="black" d="M112.457,-315.003C117.855,-303.337 124.039,-290.055 129.745,-278 133.113,-270.885 136.586,-263.584 140.101,-256.221"/>
<polygon fill="black" stroke="black" points="143.416,-257.401 144.571,-246.87 137.1,-254.382 143.416,-257.401"/>
<text text-anchor="middle" x="142.745" y="-282.3" font-family="Times New Roman,serif" font-size="14.00">style</text>
</g>
<!-- www.example.cz/falsepicture -->
<g id="node9" class="node"><title>www.example.cz/falsepicture</title>
<ellipse fill="red" stroke="black" cx="549.745" cy="-530" rx="36" ry="36"/>
<text text-anchor="middle" x="549.745" y="-526.3" font-family="Times New Roman,serif" font-size="14.00">www.example.cz/falsepicture</text>
</g>
<!-- www.example.cz/e&#45;&gt;www.example.cz/falsepicture -->
<g id="edge12" class="edge"><title>www.example.cz/e&#45;&gt;www.example.cz/falsepicture</title>
<path fill="none" stroke="black" d="M549.745,-675.867C549.745,-647.372 549.745,-607.01 549.745,-576.125"/>
<polygon fill="black" stroke="black" points="553.245,-576.044 549.745,-566.045 546.245,-576.045 553.245,-576.044"/>
<text text-anchor="middle" x="572.745" y="-646.3" font-family="Times New Roman,serif" font-size="14.00">elephant</text>
</g>
<!-- www.example.cz/e&#45;&gt;www.example.cz/css -->
<g id="edge19" class="edge"><title>www.example.cz/e&#45;&gt;www.example.cz/css</title>
<path fill="none" stroke="black" d="M577.615,-689.04C586.424,-680.415 595.075,-669.756 599.745,-658 608.089,-636.996 698.789,-751.71 594.745,-436 567.884,-354.493 548.337,-334.505 483.745,-278 438.834,-238.711 381.577,-206.448 330.33,-182.26"/>
<polygon fill="black" stroke="black" points="331.711,-179.042 321.168,-177.99 328.754,-185.387 331.711,-179.042"/>
<text text-anchor="middle" x="600.745" y="-406.3" font-family="Times New Roman,serif" font-size="14.00">style</text>
</g>
</g>
</svg>
